<svg xmlns="http://www.w3.org/2000/svg" width="22.667" height="20" version="1.0" viewBox="0 0 421 396"><g fill="#022456"><path d="M208 16.7c-.6 1-5.9 10.3-11.9 20.8-5.9 10.4-13.2 23-16.1 28-2.9 4.9-8 13.9-11.3 19.9l-6 10.9 3.3 6.1c4 7.2 14.5 25.4 22 38.1 2.9 4.9 9.9 17.1 15.5 27s16 27.9 23 40c7.1 12.1 15.6 26.9 18.9 33 9.8 17.7 20 26.2 34.2 28.5 8.2 1.4 76.1 1.3 76.9 0 .4-.6-.7-3.2-2.3-5.8s-5.1-8.8-7.7-13.7c-2.7-5-6.5-11.7-8.5-15-4.7-7.6-11.7-19.6-26.5-45.5-14.8-25.8-20.8-36.1-27.5-47.5-2.9-5-6.4-11-7.7-13.5-5.3-9.7-9-16.1-17.8-31-5-8.5-11.4-19.6-14.2-24.5-2.8-5-7.8-13.7-11.1-19.5-3.2-5.8-8.5-15-11.7-20.5s-6.8-11.7-7.9-13.7c-2.3-4.1-4-4.8-5.6-2.1M149.2 119.2c-2.1 3.5-15.4 26.6-29.1 50.8-9.1 15.9-10.1 17.6-17.4 30-2.8 4.7-7.8 13.4-11.2 19.5-3.4 6-8.5 15-11.4 20-2.9 4.9-14.1 24.3-24.8 43-10.8 18.7-23 39.8-27.3 47-4.2 7.1-10.3 17.7-13.5 23.5s-6.4 11.4-7.1 12.5c-3.2 4.6-4.2 4.5 45.9 4.5h47.2l5.9-10.3c3.3-5.6 8.3-14.3 11.1-19.2 2.9-5 10.4-18 16.7-29s13.9-24.1 16.8-29c2.9-5 7.6-13.1 10.3-18 2.8-5 9.8-17.1 15.5-27 13.5-23.1 15.8-28.1 16.6-35.8 1.2-11.6-1.7-20.1-14-40.7-5.2-8.6-9.5-16.1-21.7-37.8-2.2-3.9-4.6-7.2-5.3-7.2s-2.1 1.5-3.2 3.2M181 289.6c-12.3 3.3-19.1 9.7-29.7 27.9-16.7 28.6-29.3 50.9-29.3 51.7 0 .4 64.7.8 143.8.8 79 0 144.7.3 145.9.6 4.1 1.1 3.8-2.1-.9-9.8-2.5-4-7.3-12.3-10.8-18.3-3.5-6.1-7.4-12.7-8.6-14.7-1.3-2.1-2.4-3.9-2.4-4.2 0-1.1-19.3-34.1-20.3-34.8-.7-.4-41.9-.7-91.7-.7-76.4 0-91.4.3-96 1.5"/></g></svg>